<svg id="Layer_1" data-name="Layer 1" xmlns="http://www.w3.org/2000/svg" viewBox="0 0 3322.23 1471.85"><defs><style>.cls-1{fill:#fff;}.cls-2{fill:#ed1c24;}.cls-3{fill:#f3d01a;}.cls-4{fill:#231f20;}.cls-5{fill:#21469d;}.cls-6{fill:#1e4699;}.cls-7{fill:#f7d95c;}.cls-8{fill:#0c0c0c;}.cls-9{fill:#be9f2f;}.cls-10{fill:#9e1e2f;}.cls-11{opacity:0.5;}</style></defs><path class="cls-1" d="M1153.38,681.25h-3.59a49,49,0,0,0,2-13.68h0c0-30.21-27.74-54.93-61.65-54.93h-21.3c-14.23-21.59-41.07-36.14-71.83-36.14-45.65,0-82.66,32-82.66,71.58a63.86,63.86,0,0,0,10.07,34.26c-28.12,5.08-49.46,27.35-49.46,53.84h0c0,30.21,27.74,54.93,61.65,54.93h36a69.74,69.74,0,0,0,9.09-.6,69.7,69.7,0,0,0,9.08.6h162.62c33.91,0,61.65-24.72,61.65-54.93h0C1215,706,1187.29,681.25,1153.38,681.25Z" transform="translate(-0.11 -30.59)"/><path class="cls-1" d="M3266.92,632.18a61,61,0,0,0-43.27-18h-15.38V614c0-11.81-6.08-22.54-15.88-30.32a58.94,58.94,0,0,0-25.47-11.39c0-.41,0-.81,0-1.21,0-37.86-33.94-68.54-75.8-68.54s-75.8,30.68-75.8,68.53h-51.3c-29.74,0-54.08,19.32-54.08,42.93v.19h-15.37a61.28,61.28,0,0,0,0,122.55h329a61.2,61.2,0,0,0,43.27-104.55Z" transform="translate(-0.11 -30.59)"/><polygon class="cls-2" points="3014.57 1248.66 2713.57 1248.66 2742.23 1171.95 2947.84 1179.31 3014.57 1248.66"/><rect class="cls-3" x="2837.77" y="1279.25" width="176.91" height="217.09" transform="translate(5852.33 2745) rotate(-180)"/><polygon class="cls-3" points="3322.23 1314.51 3049.84 1315.34 3078.14 1263.25 3261.84 1270.01 3322.23 1314.51"/><rect class="cls-2" x="3162.3" y="1345.1" width="160.04" height="150.92" transform="translate(6484.53 2810.53) rotate(-180)"/><path class="cls-3" d="M2851,1127.67c0-31.68,26.4-58.68,63.4-69,0-.62,0-1.24,0-1.86,0-63.51,55.85-115,124.73-115s124.74,51.48,124.74,115c0,1.49-.06,3-.13,4.44,30.92,10.46,53,38.31,53,71,0,31.94-21.07,59.23-50.82,70.25,11.81,9.62,18.54,20.62,18.54,32.26,0,.34,0,.67,0,1l-153.76-1H2876.82c0-15.07,11.28-29.06,30.26-40.39C2873.94,1182.7,2851,1157.23,2851,1127.67Z" transform="translate(-0.11 -30.59)"/><path class="cls-4" d="M3046.31,1481.18V1129c0-6.54-5.75-12.8-12.5-12.5s-12.5,5.49-12.5,12.5v352.2c0,6.54,5.75,12.8,12.5,12.5s12.5-5.49,12.5-12.5Z" transform="translate(-0.11 -30.59)"/><rect class="cls-5" x="2648.58" y="1279.59" width="189.25" height="216.42" transform="translate(5486.3 2745) rotate(-180)"/><polygon class="cls-5" points="2828.12 1246.98 2658.07 1246.98 2743.09 1179.31 2828.12 1246.98"/><path class="cls-5" d="M2648.52,1277.57v5.56h189.25v-5.56h-.29l-89.65-71.35-4.62-3.68-4.63,3.68-89.65,71.35Zm9.66,0,85-67.67,85,67.67Z" transform="translate(-0.11 -30.59)"/><polygon class="cls-2" points="2425.91 1230.8 2124.92 1233.44 2153.57 1156.73 2359.18 1164.1 2425.91 1230.8"/><rect class="cls-5" x="2058.66" y="1264.03" width="189.25" height="225.89" transform="translate(4306.45 2723.37) rotate(-180)"/><polygon class="cls-5" points="2238.26 1230.09 2068.21 1230.09 2153.23 1163.93 2238.26 1230.09"/><path class="cls-5" d="M2058.66,1260.68v5.44H2247.9v-5.44h-.28L2158,1190.92l-4.62-3.59-4.63,3.59-89.65,69.76Zm9.66,0,85-66.16,85,66.16Z" transform="translate(-0.11 -30.59)"/><rect class="cls-3" x="2191.03" y="1261.06" width="183.12" height="228.53" transform="translate(4565.06 2720.06) rotate(-180)"/><polygon class="cls-3" points="2736.45 1247.25 2435.46 1247.25 2464.11 1170.54 2669.72 1177.9 2736.45 1247.25"/><rect class="cls-2" x="2559.65" y="1277.84" width="176.91" height="217.83" transform="translate(5296.1 2742.92) rotate(-180)"/><rect class="cls-5" x="2370.4" y="1277.84" width="189.25" height="216.42" transform="translate(4929.94 2741.5) rotate(-180)"/><polygon class="cls-5" points="2550.01 1245.56 2379.95 1245.56 2464.98 1177.9 2550.01 1245.56"/><path class="cls-5" d="M2370.4,1276.16v5.56h189.25v-5.56h-.28l-89.65-71.35-4.63-3.68-4.62,3.68-89.66,71.35Zm9.66,0,85-67.67,85,67.67Z" transform="translate(-0.11 -30.59)"/><path class="cls-3" d="M2575.07,1478.47a12.77,12.77,0,0,1-1.42-5.76c-.05-7.39,6.18-13.41,13.91-13.47a14.68,14.68,0,0,1,3.66.46c-1.41-9.13-9.66-16.11-19.59-16a20.33,20.33,0,0,0-9.3,2.29c0-.4,0-.81,0-1.22-.1-15-13.37-27.24-29.41-27.14a30.36,30.36,0,0,0-17.78,5.86,35.6,35.6,0,1,0-59,39.9,35.39,35.39,0,0,0-5.18-.36,35.78,35.78,0,0,0-35.34,35.32l35.57.33,35.58-.23c0-.08,0-.15,0-.23h34.53l31-.2C2552.43,1487.63,2562.52,1479,2575.07,1478.47Z" transform="translate(-0.11 -30.59)"/><path class="cls-5" d="M2703.61,1496.26c-.39-16.33-15.53-29.52-33.73-29.4a37.33,37.33,0,0,0-6.4.61,14.29,14.29,0,0,0,1.13-5.6c-.06-8.81-8.21-15.9-18.2-15.84a19.3,19.3,0,0,0-13,5,21,21,0,0,0-18.62-10.66c-11.39.07-20.71,8.9-20.64,19.55,0,.29,0,.58,0,.87a14.24,14.24,0,0,0-3-1.09,14.68,14.68,0,0,0-3.66-.46c-7.73.06-14,6.08-13.91,13.47a12.77,12.77,0,0,0,1.42,5.76c-12.55.56-22.64,9.16-22.66,19.51v.29l23.9-.33,23.91-.27h0l23.56-.16,35.31-.46,11-.08Z" transform="translate(-0.11 -30.59)"/><rect class="cls-1" x="2867.77" y="1316.3" width="121.66" height="32.08" transform="translate(5857.09 2634.09) rotate(-180)"/><rect class="cls-1" x="2223.87" y="1297.57" width="36.94" height="47.72" transform="translate(4484.57 2612.26) rotate(-180)"/><rect class="cls-1" x="2304.43" y="1297.57" width="36.94" height="47.72" transform="translate(4645.68 2612.26) rotate(-180)"/><rect class="cls-1" x="2223.87" y="1366.37" width="36.94" height="47.72" transform="translate(4484.57 2749.88) rotate(-180)"/><rect class="cls-1" x="2304.43" y="1366.37" width="36.94" height="47.72" transform="translate(4645.68 2749.88) rotate(-180)"/><rect class="cls-1" x="2589.77" y="1312.09" width="36.94" height="47.72" transform="translate(5216.37 2641.3) rotate(-180)"/><rect class="cls-5" x="2990.98" y="1345.93" width="171.26" height="150.09" transform="translate(6153.11 2811.36) rotate(-180)"/><polygon class="cls-5" points="3153.56 1314.36 2999.61 1314.36 3076.59 1268.26 3153.56 1314.36"/><path class="cls-5" d="M2991,1345v3.79H3162.3V1345H3162l-81.16-48.61-4.18-2.5-4.19,2.5L2991.35,1345Zm8.75,0,77-46.1,77,46.1Z" transform="translate(-0.11 -30.59)"/><rect class="cls-1" x="2670.33" y="1312.09" width="36.94" height="47.72" transform="translate(5377.48 2641.3) rotate(-180)"/><rect class="cls-1" x="3111.35" y="1387.58" width="30.79" height="38.31" transform="translate(6253.38 2782.88) rotate(-180)"/><rect class="cls-1" x="3008.98" y="1387.58" width="30.79" height="38.31" transform="translate(6048.64 2782.88) rotate(-180)"/><rect class="cls-1" x="2863.01" y="1379.15" width="126.42" height="32.08" transform="translate(5852.33 2759.79) rotate(-180)"/><polygon class="cls-2" points="310.65 1253.42 611.64 1253.42 582.99 1176.71 377.38 1184.07 310.65 1253.42"/><rect class="cls-3" x="310.65" y="1253.42" width="176.91" height="217.09"/><polygon class="cls-3" points="0 1318.92 272.39 1319.74 244.09 1267.66 60.39 1274.42 0 1318.92"/><rect class="cls-2" y="1318.92" width="160.04" height="150.92"/><path class="cls-5" d="M457.9,1184.19c0-31.68-26.4-58.68-63.4-69,0-.62.05-1.24.05-1.86,0-63.51-55.85-115-124.73-115s-124.74,51.48-124.74,115c0,1.49.06,3,.12,4.44-30.91,10.46-53,38.31-53,71,0,31.94,21.07,59.23,50.82,70.25-11.81,9.62-18.54,20.62-18.54,32.26,0,.34,0,.67,0,1l153.76-1H432c0-15.07-11.28-29.06-30.26-40.39C434.91,1239.21,457.9,1213.75,457.9,1184.19Z" transform="translate(-0.11 -30.59)"/><path class="cls-4" d="M285,1484.05V1164.54c0-6.54-5.75-12.81-12.5-12.5s-12.5,5.49-12.5,12.5v319.51c0,6.54,5.75,12.8,12.5,12.5s12.5-5.5,12.5-12.5Z" transform="translate(-0.11 -30.59)"/><rect class="cls-5" x="487.56" y="1253.42" width="189.25" height="216.42"/><polygon class="cls-5" points="497.1 1251.74 667.15 1251.74 582.12 1184.07 497.1 1251.74"/><path class="cls-5" d="M676.51,1282.33,586.86,1211l-4.63-3.68-4.62,3.68L488,1282.33h-.29v5.56H676.92v-5.56Zm-179.3,0,85-67.66,85,67.66Z" transform="translate(-0.11 -30.59)"/><polygon class="cls-2" points="951.19 1239.89 1252.18 1242.53 1223.53 1165.83 1017.92 1173.19 951.19 1239.89"/><rect class="cls-5" x="1129.31" y="1242.53" width="189.25" height="225.89"/><polygon class="cls-5" points="1138.84 1244.28 1308.89 1244.28 1223.87 1173.53 1138.84 1244.28"/><path class="cls-5" d="M1318.25,1274.87l-89.65-74.61-4.62-3.84-4.63,3.84-89.65,74.61h-.28v5.82h189.25v-5.82Zm-179.3,0,85-70.75,85,70.75Z" transform="translate(-0.11 -30.59)"/><rect class="cls-3" x="951.19" y="1239.89" width="183.12" height="228.53"/><polygon class="cls-3" points="588.77 1252.01 889.76 1252.01 861.1 1175.3 655.5 1182.66 588.77 1252.01"/><rect class="cls-2" x="588.77" y="1252.01" width="176.91" height="217.83"/><rect class="cls-5" x="765.68" y="1252.01" width="189.25" height="216.42"/><polygon class="cls-5" points="775.21 1250.33 945.26 1250.33 860.24 1182.66 775.21 1250.33"/><path class="cls-5" d="M954.63,1280.92,865,1209.57l-4.62-3.68-4.63,3.68-89.65,71.35h-.28v5.56H955v-5.56Zm-179.31,0,85-67.67,85,67.67Z" transform="translate(-0.11 -30.59)"/><path class="cls-3" d="M789.59,1482.27a12.9,12.9,0,0,0,1.42-5.76c0-7.39-6.18-13.42-13.91-13.47a14.76,14.76,0,0,0-3.67.46c1.42-9.13,9.66-16.11,19.6-16a20.37,20.37,0,0,1,9.3,2.29c0-.4,0-.81,0-1.22.1-15,13.37-27.25,29.4-27.14a30.33,30.33,0,0,1,17.79,5.86,35.59,35.59,0,1,1,59,39.9,35.49,35.49,0,0,1,40.53,35l-35.58.33-35.58-.23c0-.08,0-.16,0-.23H843.29l-31-.2C812.23,1491.43,802.14,1482.83,789.59,1482.27Z" transform="translate(-0.11 -30.59)"/><path class="cls-5" d="M661,1500.06c.4-16.33,15.53-29.52,33.73-29.4a37.54,37.54,0,0,1,6.41.61,14.29,14.29,0,0,1-1.13-5.6c.06-8.81,8.2-15.9,18.19-15.84a19.27,19.27,0,0,1,13,5,21,21,0,0,1,18.62-10.66c11.39.07,20.7,8.9,20.63,19.55,0,.29,0,.58,0,.87a14.15,14.15,0,0,1,3-1.09,14.76,14.76,0,0,1,3.67-.46c7.73,0,14,6.08,13.91,13.47a12.9,12.9,0,0,1-1.42,5.76c12.55.56,22.64,9.16,22.65,19.51,0,0,0,.08,0,.12v.17l-23.91-.33-23.9-.27h0l-23.56-.16-35.31-.46-11-.08Z" transform="translate(-0.11 -30.59)"/><polygon class="cls-6" points="2339.51 1132.96 2504.28 1132.96 2433.26 1058.2 2339.51 1058.2 2339.51 1132.96"/><rect class="cls-1" x="335.89" y="1290.47" width="121.66" height="32.08"/><rect class="cls-3" x="2161.32" y="1132.96" width="196.82" height="333.77"/><path class="cls-2" d="M2259.87,1354.62c16.46-9.18,33.59-19.22,46.74-32.41s22.74-30.34,22.86-48.53-10.74-36.88-28.59-43.3a33.19,33.19,0,0,0-16.71-1.84c-9.71,1.61-17.91,8.38-23.09,16.35a20.2,20.2,0,0,0-1.21,2c-.42-.69-.85-1.38-1.27-2-5.18-8-13.39-14.74-23.1-16.35a33.16,33.16,0,0,0-16.7,1.84c-17.85,6.42-28.77,25.18-28.59,43.3s9.77,35.34,22.86,48.53S2243.4,1345.44,2259.87,1354.62Z" transform="translate(-0.11 -30.59)"/><rect class="cls-6" x="2358.13" y="1132.96" width="146.15" height="333.77"/><rect class="cls-1" x="2406.39" y="1259.62" width="53.73" height="59.35"/><rect class="cls-1" x="2404.35" y="1173.28" width="53.73" height="59.35"/><rect class="cls-1" x="2406.39" y="1345.97" width="53.73" height="59.35"/><polygon class="cls-2" points="2161.32 1132.96 2358.34 1132.96 2433.26 1058.2 2236.92 1058.2 2161.32 1132.96"/><rect class="cls-1" x="1064.52" y="1276.4" width="36.94" height="47.72"/><rect class="cls-1" x="983.96" y="1276.4" width="36.94" height="47.72"/><rect class="cls-1" x="1064.52" y="1345.21" width="36.94" height="47.72"/><rect class="cls-1" x="983.96" y="1345.21" width="36.94" height="47.72"/><rect class="cls-1" x="698.62" y="1290.92" width="36.94" height="47.72"/><rect class="cls-5" x="160.1" y="1319.75" width="171.26" height="150.09"/><polygon class="cls-5" points="168.67 1318.76 322.61 1318.76 245.64 1272.67 168.67 1318.76"/><path class="cls-5" d="M331.1,1349.35l-81.16-48.6-4.19-2.5-4.18,2.5-81.16,48.6h-.26v3.79H331.47v-3.79Zm-162.32,0,77-46.09,77,46.09Z" transform="translate(-0.11 -30.59)"/><rect class="cls-1" x="618.06" y="1290.92" width="36.94" height="47.72"/><rect class="cls-1" x="180.2" y="1361.4" width="30.79" height="38.31"/><rect class="cls-1" x="282.57" y="1361.4" width="30.79" height="38.31"/><rect class="cls-1" x="335.89" y="1353.32" width="126.42" height="32.08"/><circle class="cls-3" cx="259.69" cy="124.5" r="53.9"/><rect class="cls-7" x="148.29" y="126.97" width="21.74" height="50.72" rx="10.87" transform="translate(6.71 280.9) rotate(-90)"/><rect class="cls-7" x="344.74" y="129.73" width="21.74" height="50.72" rx="10.87" transform="translate(200.4 480.11) rotate(-90)"/><rect class="cls-7" x="248.12" y="198.87" width="21.74" height="50.72" rx="10.87"/><rect class="cls-7" x="179.98" y="206.73" width="21.74" height="50.72" rx="10.87" transform="translate(175.63 -98.6) rotate(36.55)"/><rect class="cls-7" x="312.01" y="206.73" width="21.74" height="50.72" rx="10.87" transform="translate(719.15 169.88) rotate(139.73)"/><rect class="cls-7" x="250.69" width="21.74" height="50.72" rx="10.87"/><rect class="cls-7" x="182.55" y="53.32" width="21.74" height="50.72" rx="10.87" transform="matrix(0.8, -0.6, 0.6, 0.8, -8.93, 100.07)"/><rect class="cls-7" x="314.59" y="53.32" width="21.74" height="50.72" rx="10.87" transform="translate(522.81 318.5) rotate(-139.73)"/><path class="cls-5" d="M3095.49,433.62a18,18,0,0,0-18.33,1.8c-5.4,4.05-8.23,10.2-11.37,16h8.63c-3.14-5.77-6-12-11.37-16a18.06,18.06,0,0,0-18.33-1.8c-2.4,1.06-3.15,4.75-1.8,6.84,1.61,2.49,4.27,2.93,6.84,1.8-1.25.55.39-.1.75-.2s.56-.11.83-.18c.6-.18-1.26.08-.16,0,.5,0,1-.06,1.51,0,0,0,.83,0,.83,0s-1.27-.22-.16,0a14.77,14.77,0,0,1,1.49.38,7.1,7.1,0,0,0,1,.36c-.29,0-.82-.39-.24-.08s1,.55,1.54.88c.12.08,1,.66.37.24s.3.26.35.3a16.7,16.7,0,0,1,1.2,1.18,3.58,3.58,0,0,1,.63.72c-.26-.57-.28-.38.06.09.77,1.08,1.47,2.2,2.14,3.34,1.38,2.34,2.62,4.76,3.92,7.15a5,5,0,0,0,8.63,0c1.26-2.33,2.47-4.69,3.8-7,.67-1.14,1.38-2.27,2.14-3.35,0,0,.78-1,.32-.46s.26-.27.35-.38a16.69,16.69,0,0,1,1.34-1.32s.55-.48.56-.47c-.49.37-.58.45-.29.23l.3-.2a14.6,14.6,0,0,1,1.53-.9c.38-.19.71-.63-.09,0a2.93,2.93,0,0,1,.81-.3,13,13,0,0,1,1.48-.4c.09,0,1.2-.22.34-.08s.15,0,.34,0a15.7,15.7,0,0,1,1.68,0c.73.05-.15.07-.33-.05a3.48,3.48,0,0,0,.83.18c.28.07.55.15.82.24s1.3.53.09,0c2.39,1.05,5.48.77,6.84-1.8,1.15-2.17.76-5.71-1.79-6.84Z" transform="translate(-0.11 -30.59)"/><path class="cls-5" d="M1661,386.93a24.29,24.29,0,0,0-21.1.15c-6.94,3.26-11.43,9.6-15.09,16.08-2,3.62-3.87,7.36-5.8,11h8.63c-3.55-6.76-6.76-13.8-11.6-19.76a27,27,0,0,0-18.67-9.89,23.52,23.52,0,0,0-11.72,2.38c-2.38,1.1-3.16,4.72-1.8,6.84a5.14,5.14,0,0,0,6.84,1.79q.75-.35-.24.09l.64-.25c.43-.16.86-.3,1.3-.42s.87-.23,1.32-.32l.66-.12c-.78.1-.89.11-.34,0a21.65,21.65,0,0,1,2.67-.08c.33,0,.67.05,1,.07.56.06.44,0-.33-.06l.66.11a20,20,0,0,1,2.63.69,6.08,6.08,0,0,1,1.29.48c-1.2-.75.1.07.38.22.74.38,1.45.8,2.15,1.25a9.72,9.72,0,0,1,1.18.84l.41.38a25.42,25.42,0,0,1,2.14,2.14c.3.34.59.69.88,1l-.18-.23c.16.21.32.43.47.65a65.67,65.67,0,0,1,3.6,5.74c2.13,3.74,4,7.61,6,11.41a5,5,0,0,0,8.63,0c2-3.8,3.89-7.67,6-11.41,1.12-2,2.3-3.9,3.61-5.74.25-.36.7-.95.17-.27.32-.4.65-.8,1-1.19a27.13,27.13,0,0,1,2.15-2.14l.41-.38a9.72,9.72,0,0,1,1.18-.84c.69-.45,1.41-.87,2.14-1.25.29-.15,1.58-1,.39-.22a5.89,5.89,0,0,1,1.29-.48,19.81,19.81,0,0,1,2.62-.69l.67-.11q-1.17.15-.33.06c.33,0,.66-.06,1-.07a21.49,21.49,0,0,1,2.66.08c.56.06.45.05-.33,0l.66.12c.44.09.88.2,1.31.32s.87.26,1.3.42l.64.25q-1-.43-.24-.09c2.37,1.1,5.5.75,6.84-1.79,1.17-2.21.74-5.67-1.79-6.84Z" transform="translate(-0.11 -30.59)"/><path class="cls-5" d="M193.81,787.39a25.94,25.94,0,0,0-20.8,2.13c-6.46,3.65-10.37,10.26-14.54,16.16h8.64c-4.17-5.9-8.08-12.52-14.55-16.16a26,26,0,0,0-20.79-2.13c-2.47.84-4.36,3.47-3.49,6.15.79,2.45,3.5,4.4,6.15,3.49a20.21,20.21,0,0,1,2.15-.61l.91-.19.56-.09c-.66.09-.79.11-.41.07,1.38-.06,2.71-.06,4.09,0,.64,0-1-.19,0,0,.37.07.74.13,1.1.21A20.24,20.24,0,0,1,145,797l.88.31c.62.24.58.09,0,0a7,7,0,0,1,2,1c.59.34,1.14.74,1.71,1.12s-.69-.59,0,0c.28.25.56.49.83.75a34.26,34.26,0,0,1,3.06,3.42c.9,1.11-.58-.8.28.36.26.34.52.69.77,1,.42.57.83,1.15,1.24,1.74.92,1.3,1.81,2.62,2.73,3.92a5.09,5.09,0,0,0,8.64,0c.88-1.24,1.73-2.5,2.61-3.75.44-.64.9-1.28,1.36-1.91.25-.35.51-.7.77-1,.55-.75-.22.25.14-.19a38.94,38.94,0,0,1,3.19-3.59c.23-.22.46-.43.7-.63.44-.38.45-.46,0,0a10.16,10.16,0,0,1,1.86-1.23c.59-.35,1.21-.63,1.81-1s-.88.32,0,0l1.06-.38c.65-.21,1.31-.39,2-.54.37-.09.73-.16,1.1-.22,1-.18.12.15,0,0,.2.19,1.87-.13,2.23-.13.62,0,1.24.06,1.86.08,1.15,0-.89-.18.15,0,.37.07.73.13,1.1.22a20.21,20.21,0,0,1,2.15.61,5,5,0,0,0,6.15-3.49,5.13,5.13,0,0,0-3.49-6.15Z" transform="translate(-0.11 -30.59)"/><path class="cls-5" d="M298.14,717.93c-7-3-14.93-2.32-21.83.65-7.47,3.21-12.48,9.51-16.67,16.22-2.31,3.7-4.39,7.54-6.58,11.3h8.64c-4-6.86-7.62-14.17-13-20.1a30.71,30.71,0,0,0-20.3-10,25.79,25.79,0,0,0-11.81,1.89,5.54,5.54,0,0,0-3,2.3,5.08,5.08,0,0,0-.51,3.85c.75,2.31,3.57,4.58,6.15,3.49a23.24,23.24,0,0,1,4.39-1.36,6,6,0,0,0,1-.18s-1,.11-.46.07l.52-.05a22,22,0,0,1,2.44-.07,14.8,14.8,0,0,0,2.09.15s-1-.17-.46-.07c.17,0,.34.06.51.09.47.08.93.18,1.38.29.69.16,1.37.36,2,.58.34.11.67.24,1,.36l.06,0c-.73-.27.33.15.39.18a26.2,26.2,0,0,1,3.94,2.28c.2.14.39.29.6.43.47.34-.28-.21-.28-.21s.74.62.86.72c.62.54,1.21,1.11,1.78,1.71s1.13,1.24,1.65,1.89-.33-.47.23.3l.87,1.2c1.08,1.53,2.09,3.1,3.07,4.69,2.13,3.47,4.07,7,6.11,10.56a5.05,5.05,0,0,0,8.64,0c1.79-3.08,3.5-6.2,5.33-9.26,1-1.61,2-3.2,3-4.76.47-.71,1-1.4,1.46-2.09.21-.29.76-1,.23-.32.32-.41.65-.82,1-1.22a36.55,36.55,0,0,1,3.4-3.3c.53-.47-.7.5-.13.09l.45-.32c.3-.22.6-.43.91-.63q1-.65,2-1.2c.37-.2.75-.39,1.13-.56l.49-.23c.51-.24-.35.17-.37.16.19,0,.81-.31,1-.37.39-.14.78-.27,1.18-.38.73-.22,1.47-.4,2.22-.55a8.68,8.68,0,0,0,1-.17s-1,.11-.46.07l.7-.07a20.67,20.67,0,0,1,2.61,0c.41,0,.82,0,1.22.08,1.19.11-.63-.14.23,0a24.25,24.25,0,0,1,5.08,1.48c2.42,1,5.61-1.09,6.15-3.49.67-2.93-.9-5.06-3.49-6.15Z" transform="translate(-0.11 -30.59)"/><path class="cls-5" d="M138.34,728.32c-6.07-3-12.58-1.82-17.69,2.49-4.58,3.87-6.83,10-9.36,15.29h8.63c-2.53-5.26-4.78-11.42-9.36-15.29-5.11-4.31-11.62-5.51-17.69-2.49a5,5,0,0,0-1.8,6.84,5.12,5.12,0,0,0,6.84,1.8c.83-.41-.7.18-.11,0,.21-.05.41-.15.62-.21s.53-.13.79-.2c.75-.22-.24.14-.37,0a6.48,6.48,0,0,0,1.44,0c1,0-.09.14-.2-.06a2.82,2.82,0,0,0,.63.12c.49.11.94.3,1.42.43s-.91-.47-.11,0l.6.32.74.47.29.2q.43.32-.3-.24s1.17,1.08,1.22,1.13.35.38.51.57.66.93.08.06c.33.5.68,1,1,1.5.66,1.08,1.26,2.18,1.84,3.3,1.15,2.25,2.19,4.55,3.29,6.83,1.57,3.27,7.06,3.27,8.63,0,1.07-2.21,2.08-4.45,3.2-6.64.57-1.12,1.17-2.23,1.83-3.31.35-.58.73-1.12,1.1-1.68-.22.33-.42.49,0,.08.21-.23.42-.48.64-.71s1.23-1.11,1.22-1.13-.84.58-.15.14c.24-.16.48-.33.73-.48l.6-.33c.9-.47-.06-.17-.12,0,.07-.19,1.26-.41,1.42-.45s.43-.08.63-.14c.58-.16-1.11,0-.2,0,.47,0,1,0,1.44,0s-.91-.24-.37,0c.25.09.53.11.79.18l.63.2c1.08.34-1-.48,0,0,2.33,1.16,5.52.7,6.84-1.8,1.19-2.26.7-5.59-1.8-6.84Z" transform="translate(-0.11 -30.59)"/><path class="cls-5" d="M3141.62,519.18a21.33,21.33,0,0,0-11.23-1.95,22.93,22.93,0,0,0-11,4.23c-6.75,5-10.3,12.82-14.26,20h8.64c-4-7.17-7.51-15-14.27-20a22.37,22.37,0,0,0-10.36-4.14,21.75,21.75,0,0,0-11.9,1.86c-2.4,1.05-3.14,4.75-1.79,6.84,1.6,2.49,4.26,2.92,6.84,1.79-1.26.55,0,0,.27-.07s.65-.21,1-.3.78-.17,1.17-.27c1-.23-1.08.06,0,0,.68,0,1.35-.09,2-.07.34,0,.67,0,1,.06,1.1.05-1-.21,0,0,.73.16,1.45.31,2.17.53.39.12.77.26,1.15.4,1,.34-.89-.45.1,0,.63.33,1.26.66,1.87,1,.31.19.6.4.9.6.83.53-.68-.6.3.23a18.82,18.82,0,0,1,1.78,1.68c.26.28.5.58.76.86.71.77-.5-.73.2.23,1,1.43,2,2.92,2.93,4.44,1.82,3,3.44,6.19,5.15,9.29a5,5,0,0,0,8.64,0c1.67-3,3.26-6.12,5-9.11.95-1.58,1.95-3.13,3-4.62.8-1.09-.66.74.2-.23.25-.29.5-.58.76-.86a18.82,18.82,0,0,1,1.78-1.68c.14-.12.28-.24.43-.35-.48.37-.58.44-.28.23s.69-.49,1.05-.71c.61-.38,1.24-.7,1.87-1,1.05-.55-1,.35.1,0l1-.35a18.14,18.14,0,0,1,2.17-.55l.51-.08c-.71.09-.87.11-.48.07s.79-.07,1.18-.08a19.77,19.77,0,0,1,2,.07c1.16.09-1.12-.25,0,0l1,.22,1,.29c.28.09,1.74.7.43.13,2.39,1.05,5.48.78,6.84-1.79,1.15-2.17.77-5.72-1.79-6.84Z" transform="translate(-0.11 -30.59)"/><path class="cls-8" d="M2023.06,883.16h0a7.08,7.08,0,0,0-8.68-5l-115,31v13.61l103.18-26.81v.13l15.5-4.18A7.14,7.14,0,0,0,2023.06,883.16Z" transform="translate(-0.11 -30.59)"/><polygon class="cls-5" points="1899.26 892.15 1899.26 1468.43 2002.44 1468.43 2002.44 865.48 2002.44 865.34 1899.26 892.15"/><path class="cls-3" d="M1619.65,1178.4v160.31h6.06V1178.4h110.08v-9.17H1625.71v-97.55a48,48,0,0,1,47.87-48.13h62.21v-83L1587.33,980.6v133.17h-57.55v64.63Z" transform="translate(-0.11 -30.59)"/><path class="cls-3" d="M1899.37,922.75V896.43l-85.73,23.13v104H1845a27.28,27.28,0,0,1,27.2,27.35v118.33h-58.51v9.17h58.51V1499h-96.31v-95.41h-377v19.3h375.89v4.44H1398.82V1499h32.64v-64.74h57V1499H1557v-64.74h57V1499h66.2v-64.74h57V1499h162.18Z" transform="translate(-0.11 -30.59)"/><path class="cls-8" d="M1735.79,939.22l77.85-21v1.34l85.73-23.13,22.24-6a8.22,8.22,0,0,0,5.77-10h0a8.15,8.15,0,0,0-10-5.8l-360.14,97.15a8.2,8.2,0,0,0-5.77,10h0a8.17,8.17,0,0,0,10,5.8l25.86-7,148.46-40.05Z" transform="translate(-0.11 -30.59)"/><path class="cls-8" d="M1690.05,1338.71a12.43,12.43,0,0,1,12.4,12.47V1382a1.56,1.56,0,0,1-1.56,1.57h34.9V1178.4H1625.71v160.31h64.34Z" transform="translate(-0.11 -30.59)"/><path class="cls-8" d="M1673.58,1023.55a48,48,0,0,0-47.87,48.13v97.55h110.08V1023.55Z" transform="translate(-0.11 -30.59)"/><path class="cls-8" d="M1872.15,1169.23V1050.9a27.28,27.28,0,0,0-27.2-27.35h-31.31v145.68Z" transform="translate(-0.11 -30.59)"/><rect class="cls-8" x="1278.77" y="1351.89" width="55.21" height="116.54"/><rect class="cls-8" x="1278.77" y="1147.81" width="55.21" height="133.34"/><rect class="cls-8" x="1278.77" y="1300.65" width="55.21" height="27.74"/><rect class="cls-8" x="1529.66" y="1147.81" width="89.87" height="160.31"/><path class="cls-2" d="M1397.69,1427.35v-4.44h1.13v-19.3h-13.45v-20h82.78a1.56,1.56,0,0,1-1.56-1.57v-30.85a12.43,12.43,0,0,1,12.4-12.47h50.79V1062.57l-195.69,47.61v201.56h56.82a6.79,6.79,0,0,1,6.78,6.82v5.87a6.79,6.79,0,0,1-6.78,6.81h-56.82V1359h58.75a6.79,6.79,0,0,1,6.78,6.81v9.87a6.79,6.79,0,0,1-6.78,6.82h-58.75V1499h64.73v-71.67Zm23.3-271.78c0,11.66-10.56,21.12-23.58,21.12s-23.58-9.46-23.58-21.12,10.56-21.12,23.58-21.12S1421,1143.91,1421,1155.57Zm4.48-21.07h40.36v72.66h33.43v35.26h-18.11l-13.2.19a43.56,43.56,0,0,1-16.93,3.5c-7.32.1-14.78-1.27-22-2.93l-1.48,0h-2.1v-.87l-.69-.16c-2.18-7.59-4.3-15.65-4-23.48a32,32,0,0,1,4.72-15.92V1134.5Zm-49.43,108v-60.75h42.74v60.75Z" transform="translate(-0.11 -30.59)"/><path class="cls-9" d="M1268.56,1375.66v-9.87a6.79,6.79,0,0,1,6.78-6.81h-5a6.79,6.79,0,0,0-6.77,6.81v9.87a6.79,6.79,0,0,0,6.77,6.82h5A6.79,6.79,0,0,1,1268.56,1375.66Z" transform="translate(-0.11 -30.59)"/><path class="cls-10" d="M1475.61,1382v-30.85a12.43,12.43,0,0,1,12.4-12.47h-9a12.43,12.43,0,0,0-12.4,12.47V1382a1.56,1.56,0,0,0,1.56,1.57h9A1.56,1.56,0,0,1,1475.61,1382Z" transform="translate(-0.11 -30.59)"/><path class="cls-3" d="M1334.09,1382.48h58.75a6.79,6.79,0,0,0,6.78-6.82v-9.87a6.79,6.79,0,0,0-6.78-6.81h-114v-27.74h112a6.79,6.79,0,0,0,6.78-6.81v-5.87a6.79,6.79,0,0,0-6.78-6.82h-112V1178.4h55.21v-64.63H1249V1499h29.89V1382.48Zm-72-63.92a6.79,6.79,0,0,1,6.77-6.82h4.6a6.79,6.79,0,0,0-6.78,6.82v5.87a6.79,6.79,0,0,0,6.78,6.81h-4.6a6.79,6.79,0,0,1-6.77-6.81Zm8.28,63.92a6.79,6.79,0,0,1-6.77-6.82v-9.87a6.79,6.79,0,0,1,6.77-6.81h5a6.79,6.79,0,0,0-6.78,6.81v9.87a6.79,6.79,0,0,0,6.78,6.82Z" transform="translate(-0.11 -30.59)"/><path class="cls-2" d="M1475.61,1351.18V1382a1.56,1.56,0,0,0,1.56,1.57h223.72a1.56,1.56,0,0,0,1.56-1.57v-30.85a12.43,12.43,0,0,0-12.4-12.47H1488A12.43,12.43,0,0,0,1475.61,1351.18Z" transform="translate(-0.11 -30.59)"/><polygon class="cls-2" points="1735.68 908.63 1735.68 909.96 1735.68 992.96 1735.68 1138.64 1735.68 1147.81 1735.68 1353.01 1786.44 1353.01 1786.44 1373.02 1775.73 1373.02 1775.73 1468.43 1813.52 1468.43 1813.52 1147.81 1813.52 1138.64 1813.52 992.96 1813.52 888.97 1813.52 887.63 1735.68 908.63"/><polygon class="cls-5" points="1786.44 1353.01 1735.68 1353.01 1700.78 1353.01 1667.03 1353.01 1477.06 1353.01 1468.04 1353.01 1385.26 1353.01 1385.26 1373.02 1398.71 1373.02 1775.73 1373.02 1786.44 1373.02 1786.44 1353.01"/><rect class="cls-8" x="1431.35" y="1403.69" width="56.99" height="64.74"/><path class="cls-9" d="M1268.81,1331.24h4.6a6.79,6.79,0,0,1-6.78-6.81v-5.87a6.79,6.79,0,0,1,6.78-6.82h-4.6a6.79,6.79,0,0,0-6.77,6.82v5.87A6.79,6.79,0,0,0,1268.81,1331.24Z" transform="translate(-0.11 -30.59)"/><polygon class="cls-8" points="1556.9 1403.69 1556.9 1468.43 1587.22 1468.43 1613.89 1468.43 1613.89 1403.69 1556.9 1403.69"/><polygon class="cls-8" points="1737.08 1463.32 1737.08 1403.69 1680.09 1403.69 1680.09 1468.43 1696.76 1468.43 1737.08 1468.43 1737.08 1463.32"/><rect x="1375.93" y="1151.12" width="42.74" height="60.76"/><ellipse cx="1397.3" cy="1124.98" rx="23.58" ry="21.12"/><rect class="cls-8" x="1813.52" y="1147.81" width="58.52" height="320.62"/><polygon class="cls-9" points="1397.58 1396.76 1398.71 1396.76 1774.6 1396.76 1774.6 1392.32 1398.71 1392.32 1397.58 1392.32 1397.58 1396.76"/><path class="cls-2" d="M1451,1246.11a43.56,43.56,0,0,0,16.93-3.5l-38.9.57C1436.24,1244.84,1443.7,1246.21,1451,1246.11Z" transform="translate(-0.11 -30.59)"/><path class="cls-2" d="M1420.75,1218.7c-.27,7.83,1.85,15.89,4,23.48l.69.16v-39.56A32,32,0,0,0,1420.75,1218.7Z" transform="translate(-0.11 -30.59)"/><path class="cls-2" d="M1460.14,1197.06a14.54,14.54,0,0,0-6-4.35c-8-3.29-17.94-.84-24.1,4.67a24,24,0,0,0-2.43,2.52v41.44l44-.65a27.07,27.07,0,0,0,3.47-2.5c6.28-5.41,9.18-14.26,5.61-21.42a13.45,13.45,0,0,0-4.78-5.45c-3.69-2.36-8.67-2.73-13.08-1.85a10,10,0,0,0-1.08.26c.1-.34.2-.67.28-1C1463.06,1204.83,1462.73,1200.38,1460.14,1197.06Z" transform="translate(-0.11 -30.59)"/><path d="M1425.47,1202.78v40.43h2.1l1.48,0,38.9-.57,13.2-.19h18.11v-35.26h-33.43V1134.5h-40.36v68.28Zm37.34,6.69c4.41-.88,9.39-.51,13.08,1.85a13.45,13.45,0,0,1,4.78,5.45c3.57,7.16.67,16-5.61,21.42a27.07,27.07,0,0,1-3.47,2.5l-44,.65V1199.9a24,24,0,0,1,2.43-2.52c6.16-5.51,16.12-8,24.1-4.67a14.54,14.54,0,0,1,6,4.35c2.59,3.32,2.92,7.77,1.87,11.69-.08.31-.18.64-.28,1A10,10,0,0,1,1462.81,1209.47Z" transform="translate(-0.11 -30.59)"/><path class="cls-2" d="M2197.25,1228.78c0-26.37-22-48.84-52.78-57.46,0-.51,0-1,0-1.54,0-52.87-46.48-95.72-103.83-95.72s-103.83,42.85-103.83,95.72c0,1.24.05,2.46.1,3.69-25.73,8.71-44.14,31.89-44.14,59.14,0,26.58,17.54,49.29,42.31,58.47-9.84,8-15.44,17.16-15.44,26.85,0,.28,0,.57,0,.85l128-.85h128c0-12.54-9.39-24.18-25.19-33.62C2178.11,1274.59,2197.25,1253.38,2197.25,1228.78Z" transform="translate(-0.11 -30.59)"/><path class="cls-4" d="M2044.9,1476.71v-266a12.9,12.9,0,0,0-3.66-8.84,12.75,12.75,0,0,0-8.84-3.66c-6.77.31-12.5,5.5-12.5,12.5v266a12.9,12.9,0,0,0,3.66,8.83,12.71,12.71,0,0,0,8.84,3.67c6.77-.31,12.5-5.5,12.5-12.5Z" transform="translate(-0.11 -30.59)"/><path class="cls-3" d="M2061.67,1479.11a13.33,13.33,0,0,1-1.42-5.9,13.85,13.85,0,0,1,13.91-13.79,14.23,14.23,0,0,1,3.66.46,19.57,19.57,0,0,0-19.6-16.44,20,20,0,0,0-9.3,2.36c0-.42,0-.84,0-1.25-.1-15.37-13.38-27.92-29.41-27.81a29.78,29.78,0,0,0-17.78,6,35.34,35.34,0,0,0-30-16.51c-19.64.13-35.46,16.59-35.33,36.76a37,37,0,0,0,6.37,20.61,32.83,32.83,0,0,0-5.18-.36c-19.3.12-35.16,16.35-35.34,36.17l35.58.35,35.57-.24v-.24H2008l31-.2C2039,1488.49,2049.12,1479.69,2061.67,1479.11Z" transform="translate(-0.11 -30.59)"/><path class="cls-2" d="M2190.21,1497.35c-.4-16.72-15.54-30.23-33.73-30.11a35.62,35.62,0,0,0-6.41.62,15,15,0,0,0,1.13-5.74c-.06-9-8.21-16.3-18.19-16.23a19,19,0,0,0-13,5.12,20.94,20.94,0,0,0-18.62-10.93c-11.39.08-20.7,9.12-20.63,20,0,.3,0,.59,0,.89a14.6,14.6,0,0,0-6.63-1.58,13.85,13.85,0,0,0-13.91,13.79,13.33,13.33,0,0,0,1.42,5.9c-12.55.58-22.64,9.38-22.65,20,0,0,0,.08,0,.12a1.09,1.09,0,0,0,0,.18l23.9-.33,23.9-.28h0l23.56-.15,35.31-.48,11-.07Z" transform="translate(-0.11 -30.59)"/><path class="cls-5" d="M1572,357.94a24.28,24.28,0,0,0-21.75.27c-7.09,3.55-11.59,10.2-15.28,17-2.06,3.8-3.92,7.7-5.88,11.55h8.64c-3.59-7.05-6.82-14.4-11.73-20.67a27.47,27.47,0,0,0-19.06-10.58,23.34,23.34,0,0,0-12.12,2.46c-2.36,1.14-3.17,4.7-1.79,6.84a5.13,5.13,0,0,0,6.84,1.8l.47-.22c.49-.25-.39.16-.41.16a5.83,5.83,0,0,0,1-.35,15.28,15.28,0,0,1,2.11-.57c.19,0,1.28-.21.48-.11s.29,0,.48,0a20,20,0,0,1,2.32,0c.33,0,.66.07,1,.08.55,0-.51,0-.51-.07l.49.08c.72.14,1.42.3,2.12.5s1.28.52,1.92.69c0,0-.89-.42-.4-.16l.47.22c.36.18.73.37,1.08.57.62.35,1.22.72,1.81,1.13.15.1,1,.77.51.36s.47.4.64.54a27.08,27.08,0,0,1,3.41,3.61c-.55-.69-.07-.06.16.27s.46.66.68,1q.75,1.13,1.44,2.28c.92,1.52,1.79,3.08,2.63,4.65,1.87,3.49,3.57,7.07,5.37,10.6,1.66,3.26,7,3.26,8.64,0,3.15-6.2,6-12.63,10-18.37.1-.15.77-1.1.43-.62s.35-.43.47-.57a24.41,24.41,0,0,1,1.69-1.83c.58-.57,1.2-1.08,1.81-1.61.43-.38-.28.23-.3.22a5.36,5.36,0,0,0,.44-.32c.34-.25.69-.48,1-.71.6-.37,1.21-.73,1.84-1.05.24-.12.76-.25.93-.45,0,0-.92.37-.4.17l.64-.24c.63-.23,1.28-.43,1.94-.6l1-.22.49-.09c.81-.16-.31.1-.34,0s2.27-.13,2.47-.12c.39,0,.77,0,1.16,0l.49.05c.66,0-1-.2-.34,0s1.52.31,2.27.54c.38.12.75.25,1.12.39.13,0,.67.28,0,0s.29.15.35.18c2.35,1.13,5.51.72,6.84-1.8,1.18-2.23.72-5.63-1.79-6.84Z" transform="translate(-0.11 -30.59)"/><path class="cls-5" d="M3227.45,484.74a25.11,25.11,0,0,0-22.67.26c-7.5,3.78-12.22,10.85-16.08,18-2.2,4.09-4.17,8.3-6.25,12.44h8.63c-3.79-7.55-7.19-15.47-12.43-22.16a28.62,28.62,0,0,0-19.93-11.17,24.11,24.11,0,0,0-12.64,2.6,5,5,0,0,0-1.8,6.84,5.12,5.12,0,0,0,6.84,1.79c.23-.11,1.36-.47.65-.31s.31-.1.51-.17a19,19,0,0,1,2.24-.61,4.65,4.65,0,0,0,1.13-.2s-1.05.08-.52.08l.49-.05a21.87,21.87,0,0,1,2.29,0c.38,0,.76.08,1.14.09.54,0-.5,0-.52-.07a2.41,2.41,0,0,0,.49.07c.76.16,1.51.32,2.26.53s1.36.55,2.06.73c0,0-.91-.41-.41-.16l.62.29c.36.18.71.37,1.07.57.66.37,1.31.78,1.94,1.21l.43.31c.83.58-.16-.08-.15-.12a11.41,11.41,0,0,0,1,.82,28.8,28.8,0,0,1,3.52,3.72c-.62-.78.07.11.28.42s.46.67.69,1c.53.81,1.05,1.63,1.55,2.46,1,1.67,1.94,3.37,2.84,5.08,2,3.79,3.82,7.66,5.75,11.48,1.63,3.26,7,3.26,8.63,0,3.37-6.71,6.42-13.67,10.71-19.87l.46-.65c.05-.08.45-.62.08-.12s.35-.43.47-.57c.57-.67,1.18-1.33,1.81-1.95s1.18-1.09,1.79-1.61,0,.17-.16.12c.06,0,.39-.28.44-.32.33-.24.68-.48,1-.7a21.18,21.18,0,0,1,2-1.13,5.39,5.39,0,0,0,1.08-.52s-.92.36-.41.17l.63-.24a21.76,21.76,0,0,1,2.08-.65l1.13-.25.49-.08c.79-.16-.28.12-.36,0a16,16,0,0,0,2.61-.12c.39,0,.77,0,1.15.06,1.16.06-.86-.2.29,0a21.72,21.72,0,0,1,2.41.59c.38.11.74.26,1.11.38.64.21-.87-.41-.25-.11l.77.36c2.35,1.14,5.52.72,6.84-1.79,1.19-2.25.72-5.62-1.79-6.84Z" transform="translate(-0.11 -30.59)"/><path class="cls-1" d="M257.06,587.38h-3.2a54.76,54.76,0,0,0,1.74-13.69h0a55.09,55.09,0,0,0-54.93-54.93h-19a74,74,0,0,0-64-36.14c-40.67,0-73.64,32-73.64,71.58a69.66,69.66,0,0,0,9,34.26A55.15,55.15,0,0,0,9,642.3H9A55.09,55.09,0,0,0,63.9,697.23H96a54.06,54.06,0,0,0,8.09-.6,54,54,0,0,0,8.09.6H257.06A55.09,55.09,0,0,0,312,642.3h0A55.08,55.08,0,0,0,257.06,587.38Z" transform="translate(-0.11 -30.59)"/><path class="cls-1" d="M2465.59,715.22c8.95-12.15,14-26.08,14-40.89,0-47.17-51.62-85.41-115.28-85.41a147.82,147.82,0,0,0-53.53,9.76c-10.91-10.58-26.6-17.22-44-17.22-32.94,0-59.63,23.67-59.63,52.87,0,.38,0,.76,0,1.14-34,8.75-58.69,33.34-58.69,62.12h0a50.49,50.49,0,0,0,2.72,16.33h-5c-47.29,0-86,29.49-86,65.54h0c0,36,38.69,65.54,86,65.54H2373a112.33,112.33,0,0,0,12.67-.71,112.06,112.06,0,0,0,12.67.71h50.24c47.29,0,86-29.49,86-65.54h0C2534.57,747.85,2504.81,721.27,2465.59,715.22Z" transform="translate(-0.11 -30.59)"/><path class="cls-5" d="M1332.49,815.68a24.13,24.13,0,0,0-20.17,2.18c-6.27,3.77-10,10.34-13.93,16.25H1307c-4-5.91-7.66-12.48-13.93-16.25a24.16,24.16,0,0,0-20.17-2.18c-2.45.88-4.36,3.44-3.49,6.15.78,2.41,3.52,4.44,6.15,3.49a17.44,17.44,0,0,1,2.1-.63l.89-.19c.89-.16.28.15-.07,0a5,5,0,0,0,1.08-.09c.36,0,.73,0,1.09,0,.61,0,1.21.05,1.81.1,1.24.1-1.09-.23.12,0l1.07.22c.59.14,1.17.31,1.75.51a4.25,4.25,0,0,1,1,.38c-1-.66-.15-.06.14.09a19,19,0,0,1,1.77,1c.26.17.52.33.77.51l.45.32-.28-.21a6,6,0,0,1,1.5,1.38c.52.53,1,1.09,1.49,1.66.27.32.53.65.8,1-.44-.56-.12-.16.12.18,1.83,2.47,3.47,5.08,5.18,7.63a5.06,5.06,0,0,0,8.63,0c1.68-2.49,3.27-5,5-7.46.07-.09.94-1.22.26-.35.26-.34.53-.67.8-1q.64-.79,1.35-1.53c.12-.13,1.51-1.59,1.64-1.51-.09,0-.85.61,0,0,.3-.22.6-.42.91-.62.58-.36,1.16-.68,1.77-1,.14-.07,1.1-.5.4-.2s.46-.16.6-.21c.63-.22,1.28-.41,1.93-.57l1.07-.22c.94-.21-.71,0-.07,0a29.52,29.52,0,0,1,4,0c.63,0-1-.19-.07,0,.35.07.71.13,1.07.22a17.29,17.29,0,0,1,2.09.63,5,5,0,0,0,6.15-3.49,5.13,5.13,0,0,0-3.49-6.15Z" transform="translate(-0.11 -30.59)"/><path class="cls-5" d="M1170.3,737.43a24.25,24.25,0,0,0-21.74.27c-7.1,3.55-11.6,10.2-15.29,17-2.06,3.8-3.92,7.7-5.88,11.55H1136c-3.59-7.05-6.82-14.4-11.73-20.67A27.45,27.45,0,0,0,1105.24,735a23.36,23.36,0,0,0-12.12,2.46c-2.36,1.14-3.17,4.7-1.79,6.84a5.13,5.13,0,0,0,6.84,1.8l.47-.23c.49-.25-.38.17-.41.17a5.83,5.83,0,0,0,1-.35,16.87,16.87,0,0,1,2.11-.58c.19,0,1.28-.2.48-.1s.29,0,.49,0a17.81,17.81,0,0,1,2.31,0l1,.08c.55,0-.5,0-.51-.07s.46.07.49.08c.72.14,1.42.3,2.12.5s1.28.52,1.93.69c0,0-.9-.42-.41-.16l.47.22q.55.27,1.08.57a21.07,21.07,0,0,1,1.81,1.13c.15.1,1,.77.52.36s.46.39.63.54a27.08,27.08,0,0,1,3.41,3.61c-.54-.69-.07-.06.16.27s.46.66.68,1q.75,1.13,1.44,2.28c.93,1.52,1.79,3.08,2.63,4.65,1.87,3.49,3.58,7.07,5.37,10.6,1.66,3.26,7,3.26,8.64,0,3.15-6.2,6-12.63,10-18.37.11-.15.77-1.1.43-.62s.35-.43.47-.57c.54-.64,1.1-1.25,1.69-1.83s1.2-1.08,1.81-1.61c.43-.38-.27.23-.3.22s.41-.3.44-.33c.34-.24.69-.47,1-.7.6-.38,1.21-.73,1.84-1.05a3.71,3.71,0,0,0,.94-.45s-.93.37-.41.17l.64-.24c.64-.23,1.28-.43,1.94-.6l1-.22.49-.09c.81-.16-.31.1-.34,0s2.27-.13,2.47-.12c.39,0,.77,0,1.16.05l.49,0c.66,0-1-.2-.34,0s1.52.31,2.27.54l1.13.38c.13,0,.66.29,0,0s.29.15.35.18c2.35,1.13,5.51.72,6.84-1.8,1.18-2.23.72-5.63-1.79-6.84Z" transform="translate(-0.11 -30.59)"/><path class="cls-5" d="M1298.53,719.43c.5-.23.42-.2-.24.08l.64-.25c.43-.15.86-.29,1.3-.42s.87-.22,1.31-.31l.66-.12-.33,0a21.59,21.59,0,0,1,2.67-.08l1,.07c.55.06.44,0-.33-.05l.66.11a18,18,0,0,1,2.62.68,6.22,6.22,0,0,1,1.29.48c-1.19-.74.1.08.39.22a21.82,21.82,0,0,1,2.14,1.26,8.93,8.93,0,0,1,1.18.83c-1-.91.22.21.42.39a25.3,25.3,0,0,1,2.14,2.13c.3.34.58.7.87,1s.17.21-.17-.23l.47.65c1.3,1.85,2.48,3.78,3.6,5.75,2.13,3.73,4,7.6,6,11.41a5,5,0,0,0,8.64,0c2-3.81,3.89-7.67,6-11.41,1.12-2,2.3-3.9,3.6-5.75.26-.36.71-.94.17-.26.33-.41.66-.81,1-1.2a25.3,25.3,0,0,1,2.14-2.13l.42-.39a8.93,8.93,0,0,1,1.18-.83,21.82,21.82,0,0,1,2.14-1.26c.29-.14,1.58-1,.39-.22a6.22,6.22,0,0,1,1.29-.48,18,18,0,0,1,2.62-.68l.66-.11c-.77.09-.88.11-.33.05l1-.07a21.59,21.59,0,0,1,2.67.08l-.33,0,.66.12c.44.09.88.19,1.31.31s.87.27,1.3.42l.64.25c-.66-.28-.74-.31-.24-.08,2.37,1.09,5.5.74,6.84-1.8,1.17-2.21.74-5.66-1.79-6.84a24.38,24.38,0,0,0-21.11.15c-6.93,3.26-11.42,9.6-15.08,16.09-2,3.62-3.87,7.35-5.81,11h8.64c-3.55-6.75-6.76-13.8-11.61-19.75a27,27,0,0,0-18.67-9.9,23.54,23.54,0,0,0-11.72,2.38c-2.38,1.1-3.16,4.72-1.79,6.84a5.14,5.14,0,0,0,6.84,1.8Z" transform="translate(-0.11 -30.59)"/><path class="cls-5" d="M1463.75,791.4l.47-.22c.49-.25-.38.16-.4.17a5.09,5.09,0,0,0,1-.36,19.16,19.16,0,0,1,2.1-.57c.2,0,1.29-.2.48-.11s.3,0,.49,0a17.81,17.81,0,0,1,2.31,0c.33,0,.66.07,1,.08.56,0-.5,0-.5-.07a3.13,3.13,0,0,0,.49.08c.71.14,1.42.3,2.12.51s1.27.52,1.92.68c0,0-.89-.41-.4-.16l.46.22c.37.18.73.37,1.09.57.62.35,1.22.73,1.81,1.13.14.11,1,.78.51.36s.47.4.63.55a26.38,26.38,0,0,1,3.41,3.6c-.54-.68-.06-.06.17.28s.46.66.68,1c.5.74,1,1.51,1.44,2.27.92,1.53,1.79,3.08,2.63,4.65,1.86,3.5,3.57,7.08,5.37,10.61,1.66,3.26,7,3.26,8.63,0,3.16-6.21,6-12.63,10-18.37.1-.15.77-1.1.43-.63s.35-.42.47-.57c.53-.63,1.1-1.24,1.69-1.83s1.19-1.08,1.8-1.61c.44-.38-.27.24-.29.22s.41-.3.44-.32c.34-.24.69-.48,1-.7a20.64,20.64,0,0,1,1.83-1c.24-.12.77-.25.94-.45,0,0-.92.36-.4.17l.63-.25a19.63,19.63,0,0,1,1.94-.59c.33-.08.65-.16,1-.22l.49-.09c.82-.16-.31.1-.34,0s2.28-.12,2.48-.12c.38,0,.77,0,1.15.06l.5.05c.65,0-1-.21-.35,0s1.53.31,2.28.54c.38.11.75.25,1.12.38.13,0,.67.29,0,0s.28.14.34.17c2.36,1.13,5.51.73,6.85-1.79,1.18-2.23.72-5.63-1.8-6.84a24.22,24.22,0,0,0-21.74.27c-7.1,3.55-11.6,10.2-15.28,17-2.07,3.8-3.92,7.7-5.88,11.55h8.63c-3.59-7-6.82-14.4-11.73-20.67a27.44,27.44,0,0,0-19.06-10.59,23.21,23.21,0,0,0-12.11,2.47c-2.37,1.13-3.18,4.7-1.8,6.84a5.12,5.12,0,0,0,6.84,1.79Z" transform="translate(-0.11 -30.59)"/><path class="cls-1" d="M2786.88,1049.73h-1.26a21.43,21.43,0,0,0,.69-5.4h0a21.74,21.74,0,0,0-21.68-21.67h-7.49a29.19,29.19,0,0,0-25.25-14.27c-16,0-29.06,12.65-29.06,28.25a27.44,27.44,0,0,0,3.54,13.52,21.76,21.76,0,0,0-17.39,21.25h0a21.73,21.73,0,0,0,21.68,21.67h12.66a22.31,22.31,0,0,1,6.39,0h57.17a21.73,21.73,0,0,0,21.68-21.67h0A21.74,21.74,0,0,0,2786.88,1049.73Z" transform="translate(-0.11 -30.59)"/></svg>